<svg width="18" height="17" viewBox="0 0 18 17" fill="none" xmlns="http://www.w3.org/2000/svg">
<path d="M7.35434 9.86807L15.4441 2.11459M7.35434 9.86807L9.92836 14.8021C9.96062 14.8696 10.0124 14.9268 10.0776 14.9669C10.1428 15.007 10.2186 15.0283 10.2961 15.0283C10.3735 15.0283 10.4493 15.007 10.5145 14.9669C10.5797 14.9268 10.6315 14.8696 10.6638 14.8021L15.4441 2.11459M7.35434 9.86807L2.20632 7.40105C2.1359 7.37012 2.07624 7.32047 2.03441 7.258C1.99257 7.19552 1.97034 7.12285 1.97034 7.04862C1.97034 6.97439 1.99257 6.90171 2.03441 6.83924C2.07624 6.77676 2.1359 6.72711 2.20632 6.69619L15.4441 2.11459" stroke="white" stroke-width="0.1" stroke-linecap="round" stroke-linejoin="round"/>
</svg>
