<svg width="94" height="36" viewBox="0 0 94 36" fill="none" xmlns="http://www.w3.org/2000/svg">
<path d="M14.736 7.24H15.6L8.484 25H7.356L0.252 7.24H1.152L7.956 24.28L14.736 7.24ZM20.4218 25V16.12H20.8298V24.604H25.6718V25H20.4218ZM34.934 25L33.662 21.832H29.426L28.154 25H27.716L31.292 16.12H31.808L35.39 25H34.934ZM29.582 21.436H33.506L31.544 16.54L29.582 21.436ZM40.6477 25.06C40.2797 25.06 39.9397 25.05 39.6277 25.03C39.3157 25.01 38.9517 24.974 38.5357 24.922V16.252C39.2677 16.108 40.0077 16.036 40.7557 16.036C42.2117 16.036 43.3117 16.414 44.0557 17.17C44.7997 17.922 45.1717 19.052 45.1717 20.56C45.1717 22.08 44.7937 23.21 44.0377 23.95C43.2817 24.69 42.1517 25.06 40.6477 25.06ZM40.6597 24.664C42.0317 24.664 43.0537 24.332 43.7257 23.668C44.4017 23.004 44.7397 21.968 44.7397 20.56C44.7397 19.152 44.4077 18.112 43.7437 17.44C43.0797 16.768 42.0717 16.432 40.7197 16.432C40.1997 16.432 39.6077 16.482 38.9437 16.582V24.55C39.4557 24.626 40.0277 24.664 40.6597 24.664Z" fill="white"/>
<path d="M14.736 17.6739H15.6L8.484 35.4339H7.356L0.252 17.6739H1.152L7.956 34.7139L14.736 17.6739ZM23.8538 35.5419C22.7178 35.5419 21.8258 35.1719 21.1778 34.4319C20.5338 33.6919 20.2118 32.5459 20.2118 30.9939C20.2118 29.9459 20.3638 29.0839 20.6678 28.4079C20.9718 27.7319 21.3938 27.2359 21.9338 26.9199C22.4778 26.6039 23.1178 26.4459 23.8538 26.4459C24.9898 26.4459 25.8798 26.8159 26.5238 27.5559C27.1718 28.2919 27.4958 29.4379 27.4958 30.9939C27.4958 32.0379 27.3438 32.8979 27.0398 33.5739C26.7358 34.2499 26.3118 34.7479 25.7678 35.0679C25.2278 35.3839 24.5898 35.5419 23.8538 35.5419ZM23.8538 35.1339C24.8658 35.1339 25.6538 34.8079 26.2178 34.1559C26.7818 33.5039 27.0638 32.4579 27.0638 31.0179C27.0638 28.2379 25.9938 26.8479 23.8538 26.8479C22.8458 26.8479 22.0578 27.1759 21.4898 27.8319C20.9258 28.4839 20.6438 29.5299 20.6438 30.9699C20.6438 33.7459 21.7138 35.1339 23.8538 35.1339ZM30.7178 35.0499H36.4178V35.4339H30.1418V35.1939L35.7578 26.9379H30.2198V26.5539H36.3398V26.7939L30.7178 35.0499ZM46.106 26.5539H46.502V35.4339H46.052L40.232 27.1719V35.4339H39.836V26.5539H40.286L46.106 34.8159V26.5539ZM50.7414 35.4339V26.5539H51.1494V35.4339H50.7414ZM57.5011 35.4339V26.9499H54.2731V26.5539H61.1371V26.9499H57.9091V35.4339H57.5011ZM65.7234 35.5419C65.3714 35.5419 65.0054 35.5099 64.6254 35.4459C64.2454 35.3859 63.8834 35.2959 63.5394 35.1759V34.7679C64.2914 35.0199 65.0254 35.1459 65.7414 35.1459C66.6134 35.1459 67.2694 34.9779 67.7094 34.6419C68.1534 34.3059 68.3754 33.8099 68.3754 33.1539C68.3754 32.7859 68.3014 32.4819 68.1534 32.2419C68.0054 31.9979 67.7734 31.7959 67.4574 31.6359C67.1414 31.4759 66.7194 31.3359 66.1914 31.2159L65.7894 31.1259C64.9854 30.9459 64.3914 30.6679 64.0074 30.2919C63.6274 29.9119 63.4374 29.4099 63.4374 28.7859C63.4374 28.3019 63.5494 27.8859 63.7734 27.5379C64.0014 27.1859 64.3374 26.9159 64.7814 26.7279C65.2294 26.5399 65.7794 26.4459 66.4314 26.4459C66.7794 26.4459 67.1254 26.4719 67.4694 26.5239C67.8174 26.5719 68.1434 26.6439 68.4474 26.7399V27.1479C67.7754 26.9439 67.0954 26.8419 66.4074 26.8419C65.5674 26.8419 64.9334 27.0059 64.5054 27.3339C64.0814 27.6619 63.8694 28.1379 63.8694 28.7619C63.8694 29.1259 63.9354 29.4299 64.0674 29.6739C64.2034 29.9179 64.4174 30.1219 64.7094 30.2859C65.0054 30.4499 65.4054 30.5899 65.9094 30.7059L66.3114 30.7959C66.8994 30.9279 67.3754 31.0979 67.7394 31.3059C68.1034 31.5099 68.3714 31.7619 68.5434 32.0619C68.7194 32.3619 68.8074 32.7219 68.8074 33.1419C68.8074 33.9139 68.5394 34.5079 68.0034 34.9239C67.4714 35.3359 66.7114 35.5419 65.7234 35.5419ZM78.6416 35.4339L77.3696 32.2659H73.1336L71.8616 35.4339H71.4236L74.9996 26.5539H75.5156L79.0976 35.4339H78.6416ZM73.2896 31.8699H77.2136L75.2516 26.9739L73.2896 31.8699Z" fill="white"/>
</svg>
