<svg width="108" height="31" viewBox="0 0 108 31" fill="none" xmlns="http://www.w3.org/2000/svg">
<path d="M8.72 6.24V11.848C8.192 11.9387 7.72267 12 7.312 12.032C6.90667 12.064 6.46933 12.08 6 12.08C4.02133 12.08 2.53067 11.5867 1.528 10.6C0.525333 9.61333 0.024 8.104 0.024 6.072C0.024 4.67467 0.258667 3.52533 0.728 2.624C1.20267 1.72267 1.856 1.064 2.688 0.648C3.52 0.226666 4.488 0.0159998 5.592 0.0159998C6.06667 0.0159998 6.53333 0.0506665 6.992 0.12C7.45067 0.184 7.936 0.282666 8.448 0.415999V0.959999C7.904 0.805333 7.40533 0.698666 6.952 0.639999C6.504 0.576 6.05333 0.544 5.6 0.544C4.05333 0.544 2.832 0.984 1.936 1.864C1.04533 2.73867 0.6 4.13333 0.6 6.048C0.6 7.936 1.048 9.32533 1.944 10.216C2.84 11.1067 4.192 11.552 6 11.552C6.848 11.552 7.57333 11.4933 8.176 11.376V6.24H8.72ZM14.0515 12V0.16H14.5955V12H14.0515ZM28.4484 0.16H28.9764V12H28.3764L20.6164 0.983999V12H20.0884V0.16H20.6884L28.4484 11.176V0.16ZM42.813 12L41.117 7.776H35.469L33.773 12H33.189L37.957 0.16H38.645L43.421 12H42.813ZM35.677 7.248H40.909L38.293 0.719999L35.677 7.248ZM58.5723 12.144C55.1109 12.144 53.3803 10.128 53.3803 6.096C53.3803 4 53.8443 2.464 54.7723 1.488C55.7003 0.506667 57.0123 0.0159998 58.7083 0.0159998C59.2096 0.0159998 59.6816 0.0506665 60.1243 0.12C60.5723 0.184 61.0283 0.282666 61.4923 0.415999V0.959999C60.5803 0.682666 59.6416 0.544 58.6763 0.544C57.1349 0.544 55.9616 0.978666 55.1563 1.848C54.3563 2.712 53.9563 4.11733 53.9563 6.064C53.9563 7.42933 54.1429 8.52267 54.5163 9.344C54.8949 10.16 55.4229 10.744 56.1003 11.096C56.7829 11.4427 57.6096 11.616 58.5803 11.616C59.0869 11.616 59.5643 11.5787 60.0123 11.504C60.4656 11.424 60.9589 11.2907 61.4923 11.104V11.648C60.5803 11.9787 59.6069 12.144 58.5723 12.144ZM69.7575 12.144C68.2428 12.144 67.0535 11.6507 66.1895 10.664C65.3308 9.67733 64.9015 8.14933 64.9015 6.08C64.9015 4.68267 65.1042 3.53333 65.5095 2.632C65.9148 1.73067 66.4775 1.06933 67.1975 0.648C67.9228 0.226666 68.7762 0.0159998 69.7575 0.0159998C71.2722 0.0159998 72.4588 0.509333 73.3175 1.496C74.1815 2.47733 74.6135 4.00533 74.6135 6.08C74.6135 7.472 74.4108 8.61867 74.0055 9.52C73.6002 10.4213 73.0348 11.0853 72.3095 11.512C71.5895 11.9333 70.7388 12.144 69.7575 12.144ZM69.7575 11.6C71.1068 11.6 72.1575 11.1653 72.9095 10.296C73.6615 9.42667 74.0375 8.032 74.0375 6.112C74.0375 2.40533 72.6108 0.551999 69.7575 0.551999C68.4135 0.551999 67.3628 0.989333 66.6055 1.864C65.8535 2.73333 65.4775 4.128 65.4775 6.048C65.4775 9.74933 66.9042 11.6 69.7575 11.6ZM82.3231 12.08C81.8325 12.08 81.3791 12.0667 80.9631 12.04C80.5471 12.0133 80.0618 11.9653 79.5071 11.896V0.335999C80.4831 0.143999 81.4698 0.0479994 82.4671 0.0479994C84.4085 0.0479994 85.8751 0.551999 86.8671 1.56C87.8591 2.56267 88.3551 4.06933 88.3551 6.08C88.3551 8.10667 87.8511 9.61333 86.8431 10.6C85.8351 11.5867 84.3285 12.08 82.3231 12.08ZM82.3391 11.552C84.1685 11.552 85.5311 11.1093 86.4271 10.224C87.3285 9.33867 87.7791 7.95733 87.7791 6.08C87.7791 4.20267 87.3365 2.816 86.4511 1.92C85.5658 1.024 84.2218 0.575999 82.4191 0.575999C81.7258 0.575999 80.9365 0.642666 80.0511 0.775999V11.4C80.7338 11.5013 81.4965 11.552 82.3391 11.552ZM100.486 0.16L95.9665 6.568V12H95.4225V6.568L90.8385 0.16H91.5265L95.7025 6.048L99.8305 0.16H100.486Z" fill="#922338"/>
<path d="M3.44719 21.063C3.24185 21.063 3.02835 21.0443 2.80669 21.007C2.58502 20.972 2.37385 20.9195 2.17319 20.8495V20.6115C2.61185 20.7585 3.04002 20.832 3.45769 20.832C3.96635 20.832 4.34902 20.734 4.60569 20.538C4.86469 20.342 4.99419 20.0527 4.99419 19.67C4.99419 19.4553 4.95102 19.278 4.86469 19.138C4.77835 18.9957 4.64302 18.8778 4.45869 18.7845C4.27435 18.6912 4.02819 18.6095 3.72019 18.5395L3.48569 18.487C3.01669 18.382 2.67019 18.2198 2.44619 18.0005C2.22452 17.7788 2.11369 17.486 2.11369 17.122C2.11369 16.8397 2.17902 16.597 2.30969 16.394C2.44269 16.1887 2.63869 16.0312 2.89769 15.9215C3.15902 15.8118 3.47985 15.757 3.86019 15.757C4.06319 15.757 4.26502 15.7722 4.46569 15.8025C4.66869 15.8305 4.85885 15.8725 5.03619 15.9285V16.1665C4.64419 16.0475 4.24752 15.988 3.84619 15.988C3.35619 15.988 2.98635 16.0837 2.73669 16.275C2.48935 16.4663 2.36569 16.744 2.36569 17.108C2.36569 17.3203 2.40419 17.4977 2.48119 17.64C2.56052 17.7823 2.68535 17.9013 2.85569 17.997C3.02835 18.0927 3.26169 18.1743 3.55569 18.242L3.79019 18.2945C4.13319 18.3715 4.41085 18.4707 4.62319 18.592C4.83552 18.711 4.99185 18.858 5.09219 19.033C5.19485 19.208 5.24619 19.418 5.24619 19.663C5.24619 20.1133 5.08985 20.4598 4.77719 20.7025C4.46685 20.9428 4.02352 21.063 3.44719 21.063ZM9.2713 21.063C7.75696 21.063 6.9998 20.181 6.9998 18.417C6.9998 17.5 7.2028 16.828 7.6088 16.401C8.0148 15.9717 8.5888 15.757 9.3308 15.757C9.55013 15.757 9.75663 15.7722 9.9503 15.8025C10.1463 15.8305 10.3458 15.8737 10.5488 15.932V16.17C10.1498 16.0487 9.73913 15.988 9.3168 15.988C8.64246 15.988 8.12913 16.1782 7.7768 16.5585C7.4268 16.9365 7.2518 17.5513 7.2518 18.403C7.2518 19.0003 7.33346 19.4787 7.4968 19.838C7.66246 20.195 7.89346 20.4505 8.1898 20.6045C8.48846 20.7562 8.85013 20.832 9.2748 20.832C9.49646 20.832 9.7053 20.8157 9.9013 20.783C10.0996 20.748 10.3155 20.6897 10.5488 20.608V20.846C10.1498 20.9907 9.72396 21.063 9.2713 21.063ZM12.3985 21V15.82H12.6365V18.221H15.944V15.82H16.182V21H15.944V18.452H12.6365V21H12.3985ZM20.4427 21.063C19.78 21.063 19.2597 20.8472 18.8817 20.4155C18.506 19.9838 18.3182 19.3153 18.3182 18.41C18.3182 17.7987 18.4069 17.2958 18.5842 16.9015C18.7615 16.5072 19.0077 16.2178 19.3227 16.0335C19.64 15.8492 20.0134 15.757 20.4427 15.757C21.1054 15.757 21.6245 15.9728 22.0002 16.4045C22.3782 16.8338 22.5672 17.5023 22.5672 18.41C22.5672 19.019 22.4785 19.5207 22.3012 19.915C22.1239 20.3093 21.8765 20.5998 21.5592 20.7865C21.2442 20.9708 20.872 21.063 20.4427 21.063ZM20.4427 20.825C21.033 20.825 21.4927 20.6348 21.8217 20.2545C22.1507 19.8742 22.3152 19.264 22.3152 18.424C22.3152 16.8023 21.691 15.9915 20.4427 15.9915C19.8547 15.9915 19.395 16.1828 19.0637 16.5655C18.7347 16.9458 18.5702 17.556 18.5702 18.396C18.5702 20.0153 19.1944 20.825 20.4427 20.825ZM26.5702 21.063C25.9075 21.063 25.3872 20.8472 25.0092 20.4155C24.6335 19.9838 24.4457 19.3153 24.4457 18.41C24.4457 17.7987 24.5343 17.2958 24.7117 16.9015C24.889 16.5072 25.1352 16.2178 25.4502 16.0335C25.7675 15.8492 26.1408 15.757 26.5702 15.757C27.2328 15.757 27.752 15.9728 28.1277 16.4045C28.5057 16.8338 28.6947 17.5023 28.6947 18.41C28.6947 19.019 28.606 19.5207 28.4287 19.915C28.2513 20.3093 28.004 20.5998 27.6867 20.7865C27.3717 20.9708 26.9995 21.063 26.5702 21.063ZM26.5702 20.825C27.1605 20.825 27.6202 20.6348 27.9492 20.2545C28.2782 19.8742 28.4427 19.264 28.4427 18.424C28.4427 16.8023 27.8185 15.9915 26.5702 15.9915C25.9822 15.9915 25.5225 16.1828 25.1912 16.5655C24.8622 16.9458 24.6977 17.556 24.6977 18.396C24.6977 20.0153 25.3218 20.825 26.5702 20.825ZM30.8356 21V15.82H31.0736V20.769H33.8981V21H30.8356ZM40.2973 21.063C39.6346 21.063 39.1143 20.8472 38.7363 20.4155C38.3606 19.9838 38.1728 19.3153 38.1728 18.41C38.1728 17.7987 38.2614 17.2958 38.4388 16.9015C38.6161 16.5072 38.8623 16.2178 39.1773 16.0335C39.4946 15.8492 39.8679 15.757 40.2973 15.757C40.9599 15.757 41.4791 15.9728 41.8548 16.4045C42.2328 16.8338 42.4218 17.5023 42.4218 18.41C42.4218 19.019 42.3331 19.5207 42.1558 19.915C41.9784 20.3093 41.7311 20.5998 41.4138 20.7865C41.0988 20.9708 40.7266 21.063 40.2973 21.063ZM40.2973 20.825C40.8876 20.825 41.3473 20.6348 41.6763 20.2545C42.0053 19.8742 42.1698 19.264 42.1698 18.424C42.1698 16.8023 41.5456 15.9915 40.2973 15.9915C39.7093 15.9915 39.2496 16.1828 38.9183 16.5655C38.5893 16.9458 38.4248 17.556 38.4248 18.396C38.4248 20.0153 39.0489 20.825 40.2973 20.825ZM47.6672 16.051H44.8007V18.221H47.3277V18.452H44.8007V21H44.5627V15.82H47.6672V16.051ZM52.6123 20.769H55.5488V21H52.3743V15.82H55.5138V16.051H52.6123V18.221H55.1743V18.452H52.6123V20.769ZM61.2091 15.82H61.4401V21H61.1776L57.7826 16.1805V21H57.5516V15.82H57.8141L61.2091 20.6395V15.82ZM67.3851 18.48V20.9335C67.1541 20.9732 66.9487 21 66.7691 21.014C66.5917 21.028 66.4004 21.035 66.1951 21.035C65.3294 21.035 64.6772 20.8192 64.2386 20.3875C63.7999 19.9558 63.5806 19.2955 63.5806 18.4065C63.5806 17.7952 63.6832 17.2923 63.8886 16.898C64.0962 16.5037 64.3821 16.2155 64.7461 16.0335C65.1101 15.8492 65.5336 15.757 66.0166 15.757C66.2242 15.757 66.4284 15.7722 66.6291 15.8025C66.8297 15.8305 67.0421 15.8737 67.2661 15.932V16.17C67.0281 16.1023 66.8099 16.0557 66.6116 16.03C66.4156 16.002 66.2184 15.988 66.0201 15.988C65.3434 15.988 64.8091 16.1805 64.4171 16.5655C64.0274 16.9482 63.8326 17.5583 63.8326 18.396C63.8326 19.222 64.0286 19.8298 64.4206 20.2195C64.8126 20.6092 65.4041 20.804 66.1951 20.804C66.5661 20.804 66.8834 20.7783 67.1471 20.727V18.48H67.3851ZM69.7176 21V15.82H69.9556V21H69.7176ZM76.0162 15.82H76.2472V21H75.9847L72.5897 16.1805V21H72.3587V15.82H72.6212L76.0162 20.6395V15.82ZM78.8883 20.769H81.8248V21H78.6503V15.82H81.7898V16.051H78.8883V18.221H81.4503V18.452H78.8883V20.769ZM84.0655 20.769H87.002V21H83.8275V15.82H86.967V16.051H84.0655V18.221H86.6275V18.452H84.0655V20.769ZM92.3928 21L90.5343 18.711C90.4153 18.718 90.2916 18.7215 90.1633 18.7215C89.9953 18.7215 89.8448 18.718 89.7118 18.711C89.5788 18.704 89.4225 18.6935 89.2428 18.6795V21H89.0048V15.897C89.2218 15.8573 89.433 15.827 89.6383 15.806C89.8436 15.7827 90.077 15.771 90.3383 15.771C90.7933 15.771 91.1666 15.8223 91.4583 15.925C91.75 16.0253 91.967 16.1828 92.1093 16.3975C92.2516 16.6122 92.3228 16.8898 92.3228 17.2305C92.3251 17.6505 92.2003 17.9818 91.9483 18.2245C91.6963 18.4648 91.3136 18.6177 90.8003 18.683L92.6903 21H92.3928ZM89.2428 18.452C89.4388 18.4683 89.5963 18.48 89.7153 18.487C89.8343 18.4917 89.9836 18.494 90.1633 18.494C90.616 18.494 90.9835 18.4485 91.2658 18.3575C91.5481 18.2642 91.7546 18.1253 91.8853 17.941C92.0183 17.7567 92.0848 17.5233 92.0848 17.241C92.0848 16.9377 92.0241 16.6962 91.9028 16.5165C91.7838 16.3345 91.596 16.2038 91.3393 16.1245C91.085 16.0428 90.7478 16.002 90.3278 16.002C90.1061 16.002 89.9148 16.0102 89.7538 16.0265C89.5928 16.0405 89.4225 16.0638 89.2428 16.0965V18.452ZM94.6674 21V15.82H94.9054V21H94.6674ZM100.966 15.82H101.197V21H100.935L97.5395 16.1805V21H97.3085V15.82H97.571L100.966 20.6395V15.82ZM107.142 18.48V20.9335C106.911 20.9732 106.706 21 106.526 21.014C106.349 21.028 106.157 21.035 105.952 21.035C105.086 21.035 104.434 20.8192 103.996 20.3875C103.557 19.9558 103.338 19.2955 103.338 18.4065C103.338 17.7952 103.44 17.2923 103.646 16.898C103.853 16.5037 104.139 16.2155 104.503 16.0335C104.867 15.8492 105.291 15.757 105.774 15.757C105.981 15.757 106.185 15.7722 106.386 15.8025C106.587 15.8305 106.799 15.8737 107.023 15.932V16.17C106.785 16.1023 106.567 16.0557 106.369 16.03C106.173 16.002 105.975 15.988 105.777 15.988C105.1 15.988 104.566 16.1805 104.174 16.5655C103.784 16.9482 103.59 17.5583 103.59 18.396C103.59 19.222 103.786 19.8298 104.178 20.2195C104.57 20.6092 105.161 20.804 105.952 20.804C106.323 20.804 106.64 20.7783 106.904 20.727V18.48H107.142ZM6.14569 30L5.40369 28.152H2.93269L2.19069 30H1.93519L4.02119 24.82H4.32219L6.41169 30H6.14569ZM3.02369 27.921H5.31269L4.16819 25.065L3.02369 27.921ZM11.9042 24.82H12.1352V30H11.8727L8.47767 25.1805V30H8.24667V24.82H8.50917L11.9042 29.6395V24.82ZM15.7702 30.035C15.5555 30.035 15.3572 30.0292 15.1752 30.0175C14.9932 30.0058 14.7809 29.9848 14.5382 29.9545V24.897C14.9652 24.813 15.3969 24.771 15.8332 24.771C16.6825 24.771 17.3242 24.9915 17.7582 25.4325C18.1922 25.8712 18.4092 26.5303 18.4092 27.41C18.4092 28.2967 18.1887 28.9558 17.7477 29.3875C17.3067 29.8192 16.6475 30.035 15.7702 30.035ZM15.7772 29.804C16.5775 29.804 17.1737 29.6103 17.5657 29.223C17.96 28.8357 18.1572 28.2313 18.1572 27.41C18.1572 26.5887 17.9635 25.982 17.5762 25.59C17.1889 25.198 16.6009 25.002 15.8122 25.002C15.5089 25.002 15.1635 25.0312 14.7762 25.0895V29.7375C15.0749 29.7818 15.4085 29.804 15.7772 29.804ZM25.3431 30.063C23.8288 30.063 23.0716 29.181 23.0716 27.417C23.0716 26.5 23.2746 25.828 23.6806 25.401C24.0866 24.9717 24.6606 24.757 25.4026 24.757C25.622 24.757 25.8285 24.7722 26.0221 24.8025C26.2181 24.8305 26.4176 24.8737 26.6206 24.932V25.17C26.2216 25.0487 25.811 24.988 25.3886 24.988C24.7143 24.988 24.201 25.1782 23.8486 25.5585C23.4986 25.9365 23.3236 26.5513 23.3236 27.403C23.3236 28.0003 23.4053 28.4787 23.5686 28.838C23.7343 29.195 23.9653 29.4505 24.2616 29.6045C24.5603 29.7562 24.922 29.832 25.3466 29.832C25.5683 29.832 25.7771 29.8157 25.9731 29.783C26.1715 29.748 26.3873 29.6897 26.6206 29.608V29.846C26.2216 29.9907 25.7958 30.063 25.3431 30.063ZM30.2367 30.063C29.574 30.063 29.0537 29.8472 28.6757 29.4155C28.3 28.9838 28.1122 28.3153 28.1122 27.41C28.1122 26.7987 28.2008 26.2958 28.3782 25.9015C28.5555 25.5072 28.8017 25.2178 29.1167 25.0335C29.434 24.8492 29.8073 24.757 30.2367 24.757C30.8993 24.757 31.4185 24.9728 31.7942 25.4045C32.1722 25.8338 32.3612 26.5023 32.3612 27.41C32.3612 28.019 32.2725 28.5207 32.0952 28.915C31.9178 29.3093 31.6705 29.5998 31.3532 29.7865C31.0382 29.9708 30.666 30.063 30.2367 30.063ZM30.2367 29.825C30.827 29.825 31.2867 29.6348 31.6157 29.2545C31.9447 28.8742 32.1092 28.264 32.1092 27.424C32.1092 25.8023 31.485 24.9915 30.2367 24.9915C29.6487 24.9915 29.189 25.1828 28.8577 25.5655C28.5287 25.9458 28.3642 26.556 28.3642 27.396C28.3642 29.0153 28.9883 29.825 30.2367 29.825ZM39.0381 24.82H39.2971V30H39.0661V25.275L37.0396 29.3H36.7736L34.7471 25.289V30H34.5161V24.82H34.7786L36.9136 29.076L39.0381 24.82ZM41.7097 24.897C41.9383 24.8527 42.153 24.8212 42.3537 24.8025C42.5567 24.7815 42.7702 24.771 42.9942 24.771C43.6592 24.771 44.162 24.9098 44.5027 25.1875C44.8433 25.4628 45.0137 25.8898 45.0137 26.4685C45.0137 27.0332 44.8363 27.4613 44.4817 27.753C44.127 28.0423 43.5717 28.187 42.8157 28.187C42.5403 28.187 42.251 28.1718 41.9477 28.1415V30H41.7097V24.897ZM42.8227 27.956C43.28 27.956 43.651 27.9012 43.9357 27.7915C44.2227 27.6818 44.4315 27.5185 44.5622 27.3015C44.6952 27.0845 44.7617 26.8103 44.7617 26.479C44.7617 25.9703 44.6158 25.597 44.3242 25.359C44.0325 25.121 43.5892 25.002 42.9942 25.002C42.6255 25.002 42.2767 25.0312 41.9477 25.0895V27.9C42.2183 27.9373 42.51 27.956 42.8227 27.956ZM48.9058 30.063C48.4765 30.063 48.1242 29.9942 47.8488 29.8565C47.5735 29.7165 47.3682 29.5018 47.2328 29.2125C47.0975 28.9208 47.0298 28.544 47.0298 28.082V24.82H47.2678V28.117C47.2678 28.516 47.325 28.8415 47.4393 29.0935C47.556 29.3455 47.7345 29.5322 47.9748 29.6535C48.2152 29.7725 48.5255 29.832 48.9058 29.832C49.2838 29.832 49.593 29.7725 49.8333 29.6535C50.0737 29.5322 50.251 29.3455 50.3653 29.0935C50.482 28.8415 50.5403 28.516 50.5403 28.117V24.82H50.7713V28.082C50.7713 28.544 50.7037 28.9208 50.5683 29.2125C50.4353 29.5018 50.2323 29.7165 49.9593 29.8565C49.6863 29.9942 49.3352 30.063 48.9058 30.063ZM54.3763 30V25.051H52.4933V24.82H56.4973V25.051H54.6143V30H54.3763ZM58.4844 29.769H61.4209V30H58.2464V24.82H61.3859V25.051H58.4844V27.221H61.0464V27.452H58.4844V29.769ZM66.8116 30L64.9531 27.711C64.8341 27.718 64.7105 27.7215 64.5821 27.7215C64.4141 27.7215 64.2636 27.718 64.1306 27.711C63.9976 27.704 63.8413 27.6935 63.6616 27.6795V30H63.4236V24.897C63.6406 24.8573 63.8518 24.827 64.0571 24.806C64.2625 24.7827 64.4958 24.771 64.7571 24.771C65.2121 24.771 65.5855 24.8223 65.8771 24.925C66.1688 25.0253 66.3858 25.1828 66.5281 25.3975C66.6705 25.6122 66.7416 25.8898 66.7416 26.2305C66.744 26.6505 66.6191 26.9818 66.3671 27.2245C66.1151 27.4648 65.7325 27.6177 65.2191 27.683L67.1091 30H66.8116ZM63.6616 27.452C63.8576 27.4683 64.0151 27.48 64.1341 27.487C64.2531 27.4917 64.4025 27.494 64.5821 27.494C65.0348 27.494 65.4023 27.4485 65.6846 27.3575C65.967 27.2642 66.1735 27.1253 66.3041 26.941C66.4371 26.7567 66.5036 26.5233 66.5036 26.241C66.5036 25.9377 66.443 25.6962 66.3216 25.5165C66.2026 25.3345 66.0148 25.2038 65.7581 25.1245C65.5038 25.0428 65.1666 25.002 64.7466 25.002C64.525 25.002 64.3336 25.0102 64.1726 25.0265C64.0116 25.0405 63.8413 25.0638 63.6616 25.0965V27.452ZM72.8229 30.063C72.6176 30.063 72.4041 30.0443 72.1824 30.007C71.9608 29.972 71.7496 29.9195 71.5489 29.8495V29.6115C71.9876 29.7585 72.4158 29.832 72.8334 29.832C73.3421 29.832 73.7248 29.734 73.9814 29.538C74.2404 29.342 74.3699 29.0527 74.3699 28.67C74.3699 28.4553 74.3268 28.278 74.2404 28.138C74.1541 27.9957 74.0188 27.8778 73.8344 27.7845C73.6501 27.6912 73.4039 27.6095 73.0959 27.5395L72.8614 27.487C72.3924 27.382 72.0459 27.2198 71.8219 27.0005C71.6003 26.7788 71.4894 26.486 71.4894 26.122C71.4894 25.8397 71.5548 25.597 71.6854 25.394C71.8184 25.1887 72.0144 25.0312 72.2734 24.9215C72.5348 24.8118 72.8556 24.757 73.2359 24.757C73.4389 24.757 73.6408 24.7722 73.8414 24.8025C74.0444 24.8305 74.2346 24.8725 74.4119 24.9285V25.1665C74.0199 25.0475 73.6233 24.988 73.2219 24.988C72.7319 24.988 72.3621 25.0837 72.1124 25.275C71.8651 25.4663 71.7414 25.744 71.7414 26.108C71.7414 26.3203 71.7799 26.4977 71.8569 26.64C71.9363 26.7823 72.0611 26.9013 72.2314 26.997C72.4041 27.0927 72.6374 27.1743 72.9314 27.242L73.1659 27.2945C73.5089 27.3715 73.7866 27.4707 73.9989 27.592C74.2113 27.711 74.3676 27.858 74.4679 28.033C74.5706 28.208 74.6219 28.418 74.6219 28.663C74.6219 29.1133 74.4656 29.4598 74.1529 29.7025C73.8426 29.9428 73.3993 30.063 72.8229 30.063ZM78.647 30.063C77.1327 30.063 76.3755 29.181 76.3755 27.417C76.3755 26.5 76.5785 25.828 76.9845 25.401C77.3905 24.9717 77.9645 24.757 78.7065 24.757C78.9259 24.757 79.1324 24.7722 79.326 24.8025C79.522 24.8305 79.7215 24.8737 79.9245 24.932V25.17C79.5255 25.0487 79.1149 24.988 78.6925 24.988C78.0182 24.988 77.5049 25.1782 77.1525 25.5585C76.8025 25.9365 76.6275 26.5513 76.6275 27.403C76.6275 28.0003 76.7092 28.4787 76.8725 28.838C77.0382 29.195 77.2692 29.4505 77.5655 29.6045C77.8642 29.7562 78.2259 29.832 78.6505 29.832C78.8722 29.832 79.081 29.8157 79.277 29.783C79.4754 29.748 79.6912 29.6897 79.9245 29.608V29.846C79.5255 29.9907 79.0997 30.063 78.647 30.063ZM81.7743 30V24.82H82.0123V30H81.7743ZM84.6534 29.769H87.5899V30H84.4154V24.82H87.5549V25.051H84.6534V27.221H87.2154V27.452H84.6534V29.769ZM93.2502 24.82H93.4812V30H93.2187L89.8237 25.1805V30H89.5927V24.82H89.8552L93.2502 29.6395V24.82ZM97.8932 30.063C96.3789 30.063 95.6217 29.181 95.6217 27.417C95.6217 26.5 95.8247 25.828 96.2307 25.401C96.6367 24.9717 97.2107 24.757 97.9527 24.757C98.172 24.757 98.3785 24.7722 98.5722 24.8025C98.7682 24.8305 98.9677 24.8737 99.1707 24.932V25.17C98.7717 25.0487 98.361 24.988 97.9387 24.988C97.2644 24.988 96.751 25.1782 96.3987 25.5585C96.0487 25.9365 95.8737 26.5513 95.8737 27.403C95.8737 28.0003 95.9554 28.4787 96.1187 28.838C96.2844 29.195 96.5154 29.4505 96.8117 29.6045C97.1104 29.7562 97.472 29.832 97.8967 29.832C98.1184 29.832 98.3272 29.8157 98.5232 29.783C98.7215 29.748 98.9374 29.6897 99.1707 29.608V29.846C98.7717 29.9907 98.3459 30.063 97.8932 30.063ZM101.258 29.769H104.195V30H101.02V24.82H104.16V25.051H101.258V27.221H103.82V27.452H101.258V29.769Z" fill="white"/>
</svg>
