<svg width="34" height="34" viewBox="0 0 34 34" fill="none" xmlns="http://www.w3.org/2000/svg">
<path d="M5.33331 2.67448C4.20839 2.67448 3.22363 2.99443 2.50258 3.57683C1.78154 4.15923 1.34113 5.02215 1.34113 5.96485C1.34113 7.79389 2.97912 9.20965 5.14451 9.29427C5.20559 9.31383 5.26919 9.32435 5.33331 9.32552C6.50236 9.32552 7.49744 8.98285 8.20831 8.37631C8.91919 7.76976 9.3255 6.89529 9.3255 5.96485C9.3254 5.95269 9.32497 5.94053 9.3242 5.92839C9.22152 4.08779 7.58317 2.67448 5.33331 2.67448ZM5.33331 3.99219C7.07269 3.99219 7.93057 4.84623 8.00389 5.98178C7.99915 6.53663 7.78435 7.00794 7.35415 7.375C6.91919 7.74613 6.2476 8.00782 5.33331 8.00782C3.59868 8.00782 2.65883 7.06612 2.65883 5.96485C2.65883 5.41421 2.88509 4.9615 3.33071 4.60157C3.77633 4.24164 4.45824 3.99219 5.33331 3.99219ZM1.99998 10.6667C1.82317 10.6667 1.65362 10.7369 1.52859 10.862C1.40357 10.987 1.33333 11.1565 1.33331 11.3333V30.6667C1.33333 30.8435 1.40357 31.013 1.52859 31.1381C1.65362 31.2631 1.82317 31.3333 1.99998 31.3333H8.66665C8.84345 31.3333 9.01301 31.2631 9.13803 31.1381C9.26305 31.013 9.33329 30.8435 9.33331 30.6667V24.4427V11.3333C9.33329 11.1565 9.26305 10.987 9.13803 10.862C9.01301 10.7369 8.84345 10.6667 8.66665 10.6667H1.99998ZM12 10.6667C11.8232 10.6667 11.6536 10.7369 11.5286 10.862C11.4036 10.987 11.3333 11.1565 11.3333 11.3333V30.6667C11.3333 30.8435 11.4036 31.013 11.5286 31.1381C11.6536 31.2631 11.8232 31.3333 12 31.3333H18.6666C18.8435 31.3333 19.013 31.2631 19.138 31.1381C19.2631 31.013 19.3333 30.8435 19.3333 30.6667V20V19.8333V19.6667C19.3333 18.3704 20.3704 17.3333 21.6666 17.3333C22.9629 17.3333 24 18.3704 24 19.6667V30.6667C24 30.8435 24.0702 31.013 24.1953 31.1381C24.3203 31.2631 24.4898 31.3333 24.6666 31.3333H31.3333C31.5101 31.3333 31.6797 31.2631 31.8047 31.1381C31.9297 31.013 32 30.8435 32 30.6667V19.3333C32 16.5823 31.1919 14.403 29.8294 12.9167C28.4669 11.4304 26.5661 10.6667 24.5247 10.6667C21.9219 10.6667 20.3477 11.6174 19.3333 12.401V11.3333C19.3333 11.1565 19.2631 10.987 19.138 10.862C19.013 10.7369 18.8435 10.6667 18.6666 10.6667H12ZM2.66665 12H7.99998V24.4427V30H2.66665V12ZM12.6666 12H18V13.7591C18 13.894 18.041 14.0257 18.1174 14.1368C18.1939 14.248 18.3023 14.3333 18.4283 14.3815C18.5542 14.4298 18.6919 14.4387 18.823 14.4071C18.9541 14.3754 19.0726 14.3048 19.1627 14.2044C19.1627 14.2044 21.1399 12 24.5247 12C26.24 12 27.7437 12.6148 28.8463 13.8177C29.949 15.0206 30.6666 16.841 30.6666 19.3333V30H25.3333V19.6667C25.3341 19.5726 25.3151 19.4794 25.2773 19.3932C25.1294 17.5094 23.5869 16 21.6666 16C19.6496 16 18 17.6496 18 19.6667V19.8333V20V30H12.6666V12Z" fill="#D1D1D1"/>
</svg>
