<svg width="37" height="37" viewBox="0 0 37 37" fill="none" xmlns="http://www.w3.org/2000/svg">
<path d="M13.3191 34.1928C13.83 33.9729 14.1879 33.4648 14.1879 32.8733V28.9925C14.1879 28.8509 14.1994 28.7036 14.2174 28.5541C14.2073 28.557 14.198 28.5592 14.1879 28.5613C14.1879 28.5613 12.0319 28.5613 11.6007 28.5613C10.5227 28.5613 9.58848 28.1301 9.15728 27.2677C8.65421 26.3335 8.43861 24.7524 7.14501 23.89C6.92941 23.7462 7.07314 23.5306 7.50434 23.5306C7.93554 23.6025 8.86981 24.1774 9.44474 24.968C10.0915 25.7585 10.7383 26.4053 11.8882 26.4053C13.6755 26.4053 14.6335 26.3155 15.2099 26.0065C15.8811 25.0082 16.8104 24.2493 17.7813 24.2493V24.2313C13.7079 24.1006 11.1056 22.7466 9.89391 20.656C7.26 20.6862 4.96673 20.947 3.65804 21.1641C3.61636 20.9291 3.58042 20.6926 3.54952 20.4548C4.84097 20.242 7.03002 19.9898 9.5468 19.9416C9.4663 19.7433 9.39659 19.5399 9.33766 19.3315C6.81443 19.2036 4.63687 19.3035 3.45394 19.4012C3.43957 19.1626 3.42016 18.9247 3.41729 18.6832C4.60237 18.5862 6.721 18.4892 9.17956 18.6035C9.12278 18.2441 9.08613 17.8769 9.08613 17.4946C9.08613 16.2728 9.51733 14.9792 10.3079 13.9012C9.94853 12.6795 9.44546 10.0923 10.4516 9.15804C12.392 9.15804 13.7575 10.0923 14.4043 10.6672C15.6253 10.1634 16.9907 9.87598 18.4999 9.87598C20.0091 9.87598 21.3746 10.1635 22.5245 10.6665C23.1713 10.0916 24.5367 9.15732 26.4771 9.15732C27.5551 10.1634 26.9802 12.7507 26.6209 13.9005C27.4114 14.9785 27.8426 16.2003 27.7707 17.4939C27.7707 17.8417 27.7384 18.1773 27.6917 18.5065C30.2063 18.3828 32.3824 18.482 33.5876 18.5798C33.5862 18.8219 33.5639 19.0584 33.551 19.2977C32.3501 19.1985 30.1193 19.0965 27.5436 19.2337C27.4797 19.4752 27.4021 19.7102 27.3101 19.938C29.8585 19.9711 32.1 20.2176 33.4532 20.4332C33.4223 20.6718 33.3864 20.9082 33.3447 21.1425C31.9706 20.9226 29.6285 20.6653 26.9637 20.6524C25.7671 22.7207 23.2122 24.0697 19.2186 24.227V24.2493C21.0871 24.2493 22.8119 27.0521 22.8119 28.9925V32.8733C22.8119 33.4648 23.1698 33.9729 23.6808 34.1928C30.2645 32.0138 35.0293 25.8045 35.0293 18.5C35.0293 9.38585 27.6148 1.97065 18.4999 1.97065C9.3851 1.97065 1.97061 9.38585 1.97061 18.5C1.97061 25.8045 6.73537 32.0138 13.3191 34.1928Z" fill="#A9A9A9"/>
</svg>
